HIERARCHY
ROOT Hips
{
     OFFSET 95.28800 94.76050 -79.98110
     CHANNELS 6 Xposition Yposition Zposition Zrotation Xrotation Yrotation
     JOINT Spine
     {
          OFFSET -0.00000 11.89050 -0.00000
          CHANNELS 3 Zrotation Xrotation Yrotation
          JOINT Spine1
          {
               OFFSET 0.00000 25.65740 0.12766
               CHANNELS 3 Zrotation Xrotation Yrotation
               JOINT HEad
               {
                    OFFSET 0.00000 8.73416 0.01134
                    CHANNELS 3 Zrotation Xrotation Yrotation
                    End Site
                    {
                         OFFSET -0.29000 12.77420 2.51395
                    }
               }
               JOINT LeftShoulder1
               {
                    OFFSET 8.99000 -0.36225 -0.22000
                    CHANNELS 3 Zrotation Xrotation Yrotation
                    JOINT LeftArm
                    {
                         OFFSET 10.28270 -0.00338 0.32212
                         CHANNELS 3 Zrotation Xrotation Yrotation
                         JOINT LeftForeArm
                         {
                              OFFSET 32.76690 0.09914 -1.42434
                              CHANNELS 3 Zrotation Xrotation Yrotation
                              JOINT LeftHand
                              {
                                   OFFSET 27.56430 0.08536 1.02216
                                   CHANNELS 3 Zrotation Xrotation Yrotation
                                   End Site
                                   {
                                        OFFSET 16.74430 -0.60000 1.50291
                                   }
                              }
                         }
                    }
               }
               JOINT RightShoulder
               {
                    OFFSET -8.99000 -0.36225 -0.22000
                    CHANNELS 3 Zrotation Xrotation Yrotation
                    JOINT RightArm
                    {
                         OFFSET -10.28270 -0.00338 0.32212
                         CHANNELS 3 Zrotation Xrotation Yrotation
                         JOINT RightForeArm
                         {
                              OFFSET -32.89710 0.09914 -1.42434
                              CHANNELS 3 Zrotation Xrotation Yrotation
                              JOINT RightHand
                              {
                                   OFFSET -27.49210 0.08536 1.02216
                                   CHANNELS 3 Zrotation Xrotation Yrotation
                                   End Site
                                   {
                                        OFFSET -16.63120 -0.60000 1.50291
                                   }
                              }
                         }
                    }
               }
          }
     }
     JOINT LeftUpLeg
     {
          OFFSET 8.94580 -8.66707 0.10165
          CHANNELS 3 Zrotation Xrotation Yrotation
          JOINT LeftLeg
          {
               OFFSET -0.00000 -44.42270 1.37270
               CHANNELS 3 Zrotation Xrotation Yrotation
               JOINT LeftFoot
               {
                    OFFSET -0.25355 -42.09240 -1.46059
                    CHANNELS 3 Zrotation Xrotation Yrotation
                    JOINT LeftToes
                    {
                         OFFSET -0.04000 -4.41509 8.49910
                         CHANNELS 3 Zrotation Xrotation Yrotation
                         End Site
                         {
                              OFFSET 0.08000 -0.04745 9.77979
                         }
                    }
               }
          }
     }
     JOINT RightUpLeg
     {
          OFFSET -8.94580 -8.66707 0.10165
          CHANNELS 3 Zrotation Xrotation Yrotation
          JOINT RightLeg
          {
               OFFSET -0.00000 -44.42270 1.37270
               CHANNELS 3 Zrotation Xrotation Yrotation
               JOINT RightFoot
               {
                    OFFSET 0.25355 -42.09240 -1.46059
                    CHANNELS 3 Zrotation Xrotation Yrotation
                    JOINT RightToes
                    {
                         OFFSET 0.04000 -4.41509 8.49910
                         CHANNELS 3 Zrotation Xrotation Yrotation
                         End Site
                         {
                              OFFSET -0.08000 -0.13745 9.77979
                         }
                    }
               }
          }
     }
}
MOTION
Frames: 16
Frame Time: 0.01667
95.28800 94.76050 -79.98110 5.81228 2.63976 98.88660 1.50081 4.69349 4.15426 -1.88164 9.77067 8.86193 -10.10730 7.77391 28.89110 -0.00000 -0.00000 0.00000 -89.77520 -50.32480 -95.60810 -17.56190 30.21110 -82.83000 5.55594 9.67997 -0.87718 15.87520 1.25387 4.25678 57.33300 -14.33180 77.25610 12.39960 25.73990 87.58840 -5.55712 9.68432 0.87760 9.72587 -15.25480 -2.65443 10.57840 18.48610 -37.24810 -27.02990 -7.30655 0.11330 1.54119 -5.21272 -7.68659 -7.96488 3.10293 -4.03350 3.01195 33.75240 -3.31050 -4.04090 -24.74010 -0.91321 -5.31331 -6.95077 1.03523 
95.76470 94.64840 -80.56460 5.82137 2.64573 98.81500 1.36380 4.67786 4.18677 -1.93535 9.71563 8.91454 -9.88028 7.83282 28.79520 -0.00000 -0.00000 0.00000 -90.38520 -49.89190 -97.00170 -17.40680 29.98140 -81.92780 5.55594 9.67997 -0.87718 15.72760 1.24501 4.25237 57.05440 -13.99070 77.46490 12.13150 25.14130 87.41000 -5.55712 9.68432 0.87760 9.57683 -14.78030 -2.83289 10.69560 17.86930 -38.07310 -26.14490 -8.47946 -0.15699 1.42683 -4.05773 -6.86476 -8.38288 3.45142 -3.55177 3.31828 33.74160 -3.70732 -3.44162 -24.84740 -0.82462 -5.52181 -7.18715 1.11482 
96.22380 94.59000 -81.14100 5.77916 2.68620 98.82070 1.15813 4.67659 4.21004 -1.99687 9.67488 8.93743 -9.69487 7.87063 28.66810 -0.00000 -0.00000 0.00000 -90.90690 -49.38910 -98.27600 -17.23160 29.73900 -80.99840 5.55594 9.67997 -0.87718 15.58770 1.23497 4.23914 56.87360 -13.68300 77.65870 11.90870 24.63930 87.26040 -5.55712 9.68432 0.87760 9.37069 -14.50380 -2.85691 10.66730 17.68290 -38.75660 -25.03210 -9.56550 -0.38563 1.29758 -2.96521 -6.05643 -8.80475 3.81487 -3.07523 3.59379 33.57630 -4.12238 -2.79807 -24.86640 -0.72497 -5.65529 -7.35020 1.13883 
96.65670 94.58540 -81.70520 5.68102 2.75057 98.89950 0.90438 4.68788 4.22691 -2.06167 9.64928 8.93676 -9.54911 7.88705 28.51450 -0.00000 -0.00000 0.00000 -90.52280 -48.82210 -98.79210 -16.91790 28.95680 -80.23850 5.55594 9.67997 -0.87718 15.45600 1.22375 4.21673 56.79010 -13.40970 77.83150 11.73140 24.23540 87.13790 -5.55712 9.68432 0.87760 9.11465 -14.41690 -2.74974 10.53220 17.85580 -39.34100 -23.76900 -10.56370 -0.57026 1.15861 -1.88231 -5.27348 -9.21486 4.17273 -2.62543 3.81852 33.27220 -4.52352 -2.10960 -24.81630 -0.61626 -5.68350 -7.40138 1.10498 
97.05650 94.63000 -82.25500 5.52632 2.82482 99.04010 0.62916 4.70895 4.24013 -2.12322 9.63865 8.92022 -9.44202 7.88294 28.34400 -0.00000 -0.00000 0.00000 -89.73540 -48.26060 -98.93500 -16.56150 27.97990 -79.56650 5.55594 9.67997 -0.87718 15.33030 1.21129 4.18532 56.79020 -13.16500 77.98300 11.59360 23.91730 87.03680 -5.55712 9.68432 0.87760 8.82314 -14.49160 -2.54217 10.32980 18.28710 -39.85010 -22.43620 -11.46990 -0.71184 1.01381 -0.77395 -4.52749 -9.60028 4.50178 -2.22249 3.98033 32.85960 -4.88380 -1.37776 -24.72430 -0.50067 -5.58312 -7.30855 1.01819 
97.41710 94.71540 -82.78880 5.31866 2.89523 99.22530 0.35715 4.73737 4.25184 -2.17459 9.64298 8.89588 -9.37277 7.85948 28.17100 -0.00000 -0.00000 0.00000 -88.90320 -47.75600 -98.97320 -16.23020 27.06580 -78.93340 5.55594 9.67997 -0.87718 15.20550 1.19753 4.14587 56.84980 -12.93870 78.11870 11.48450 23.66210 86.94870 -5.55712 9.68432 0.87760 8.51357 -14.69060 -2.26873 10.09360 18.86910 -40.29460 -21.10760 -12.27680 -0.81370 0.86597 0.37034 -3.82769 -9.95339 4.77837 -1.88345 4.07746 32.38020 -5.18597 -0.60724 -24.62180 -0.38029 -5.34085 -7.05018 0.88971 
97.73750 94.82420 -83.30900 5.06364 2.95918 99.44270 0.08248 4.77364 4.25776 -2.21336 9.66429 8.87144 -9.33919 7.81809 28.01210 -0.00000 -0.00000 0.00000 -88.06160 -47.34320 -98.92800 -15.93750 26.25100 -78.35700 5.55594 9.67997 -0.87718 15.07490 1.18238 4.09983 56.93990 -12.72070 78.24970 11.39090 23.44160 86.86520 -5.55712 9.68432 0.87760 8.19112 -14.99710 -1.96697 9.84916 19.54750 -40.68840 -19.82810 -12.99150 -0.88296 0.71759 1.53638 -3.18134 -10.28260 4.97385 -1.61879 4.12054 31.90900 -5.43414 0.20040 -24.55740 -0.25595 -4.95468 -6.61799 0.73387 
98.00530 94.95750 -83.80690 4.77652 2.99730 99.66000 -0.14727 4.81570 4.26801 -2.22956 9.70404 8.85282 -9.33630 7.75845 27.88380 -0.00000 -0.00000 0.00000 -87.24000 -47.05280 -98.81790 -15.69260 25.56200 -77.85250 5.55594 9.67997 -0.87718 14.93120 1.16587 4.04935 57.03270 -12.50430 78.39130 11.29970 23.22840 86.77980 -5.55712 9.68432 0.87760 7.89219 -15.34210 -1.65945 9.60266 20.17730 -41.01260 -18.67030 -13.57680 -0.92161 0.57061 2.69806 -2.59058 -10.57800 5.08039 -1.44331 4.12846 31.46060 -5.61813 1.01556 -24.52820 -0.13136 -4.43445 -6.01785 0.56624 
98.21490 95.10590 -84.27860 4.47264 3.00688 99.85770 -0.32640 4.86561 4.28366 -2.22161 9.76727 8.84449 -9.35307 7.67868 27.79760 -0.00000 -0.00000 0.00000 -86.45960 -46.90680 -98.65780 -15.49950 25.01320 -77.43140 5.55594 9.67997 -0.87718 14.76800 1.14812 3.99683 57.10820 -12.29110 78.56170 11.20100 23.00210 86.69060 -5.55712 9.68432 0.87760 7.63210 -15.69730 -1.36619 9.35327 20.70760 -41.26570 -17.66570 -14.02540 -0.93630 0.42641 3.82032 -2.05276 -10.84840 5.08471 -1.36339 4.13052 31.09030 -5.75293 1.81308 -24.55070 -0.00938 -3.80046 -5.26903 0.40080 
98.36190 95.25940 -84.72040 4.16922 2.99039 100.02100 -0.45602 4.92691 4.30460 -2.19138 9.86114 8.84872 -9.37073 7.57480 27.75640 -0.00000 -0.00000 0.00000 -85.72950 -46.91810 -98.45610 -15.35660 24.60400 -77.10040 5.55594 9.67997 -0.87718 14.57900 1.12926 3.94465 57.15930 -12.09160 78.77940 11.08960 22.75360 86.60210 -5.55712 9.68432 0.87760 7.42165 -16.04490 -1.09850 9.09360 21.12030 -41.44840 -16.82860 -14.33600 -0.93321 0.28574 4.86636 -1.56123 -11.10580 4.97652 -1.38252 4.16045 30.86050 -5.86107 2.56178 -24.63640 0.10654 -3.08128 -4.40267 0.24732 
98.44280 95.40740 -85.12850 3.88361 2.95480 100.14100 -0.54150 5.00433 4.32970 -2.14461 9.99468 8.86620 -9.36176 7.43988 27.74870 -0.00000 -0.00000 0.00000 -85.04550 -47.08970 -98.21450 -15.25670 24.31960 -76.85900 5.55594 9.67997 -0.87718 14.35920 1.10941 3.89482 57.19490 -11.92620 79.06020 10.96730 22.48870 86.52610 -5.55712 9.68432 0.87760 7.26606 -16.37770 -0.85888 8.81537 21.42680 -41.56610 -16.16190 -14.51770 -0.91828 0.14832 5.81196 -1.10566 -11.36290 4.74770 -1.50041 4.25337 30.84100 -5.97056 3.22626 -24.79310 0.21233 -2.30886 -3.45670 0.10989 
98.45560 95.53880 -85.49900 3.63167 2.91056 100.21300 -0.59060 5.10330 4.35714 -2.09072 10.17810 8.89657 -9.29025 7.26418 27.74570 -0.00000 -0.00000 0.00000 -84.38900 -47.41650 -97.92570 -15.18860 24.13220 -76.69960 5.55594 9.67997 -0.87718 14.10380 1.08856 3.84852 57.24030 -11.82260 79.41400 10.84260 22.22790 86.48090 -5.55712 9.68432 0.87760 7.16454 -16.69820 -0.64358 8.51261 21.66220 -41.62700 -15.65830 -14.58620 -0.89628 0.01360 6.63894 -0.67570 -11.63110 4.39193 -1.71425 4.43963 31.10520 -6.11083 3.77021 -25.02420 0.30332 -1.51620 -2.47393 -0.01352 
98.39960 95.64210 -85.82850 3.42586 2.87068 100.24100 -0.61287 5.22947 4.38487 -2.04245 10.42160 8.93907 -9.11434 7.03458 27.69920 -0.00000 -0.00000 0.00000 -83.72740 -47.88810 -97.57200 -15.13870 24.00660 -76.60690 5.55594 9.67997 -0.87718 13.80890 1.06658 3.80604 57.33290 -11.81180 79.84180 10.72970 22.00450 86.48940 -5.55712 9.68432 0.87760 7.10995 -17.01730 -0.44447 8.18491 21.87690 -41.64220 -15.30420 -14.56400 -0.87117 -0.11910 7.34053 -0.26230 -11.91880 3.90517 -2.01858 4.74130 31.72370 -6.30994 4.16167 -25.33140 0.37480 -0.73055 -1.49433 -0.13189 
98.27580 95.70590 -86.11310 3.27370 2.84983 100.22900 -0.62009 5.38843 4.41128 -2.01514 10.73480 8.99341 -8.79038 6.73352 27.54220 -0.00000 -0.00000 0.00000 -83.01520 -48.49380 -97.12320 -15.09390 23.90620 -76.56070 5.55594 9.67997 -0.87718 13.47140 1.04317 3.76635 57.51680 -11.92190 80.33270 10.64770 21.85960 86.57420 -5.55712 9.68432 0.87760 7.08950 -17.35280 -0.25190 7.83741 22.12970 -41.62320 -15.08170 -14.47810 -0.84614 -0.24957 7.91785 0.13900 -12.23080 3.28720 -2.40620 5.16903 32.75520 -6.59221 4.37729 -25.71190 0.42237 0.02782 -0.55322 -0.25990 
98.08670 95.71880 -86.34900 3.17670 2.86348 100.18300 -0.62670 5.58509 4.43560 -2.02588 11.12540 9.06016 -8.27831 6.33965 27.19310 -0.00000 -0.00000 0.00000 -82.19560 -49.22690 -96.53390 -15.04450 23.80090 -76.53870 5.55594 9.67997 -0.87718 13.09070 1.01806 3.72783 57.83120 -12.17260 80.86200 10.61720 21.83630 86.75230 -5.55712 9.68432 0.87760 7.08599 -17.72740 -0.05618 7.48051 22.47950 -41.58100 -14.96890 -14.35710 -0.82360 -0.37652 8.37585 0.52797 -12.56800 2.54288 -2.86922 5.72016 34.23790 -6.97550 4.40799 -26.15980 0.44286 0.74829 0.32355 -0.41539 
97.83630 95.66960 -86.53220 3.13010 2.92680 100.11100 -0.65000 5.82330 4.45838 -2.09192 11.59810 9.14101 -7.54778 5.82747 26.56120 -0.00000 -0.00000 0.00000 -81.20430 -50.08810 -95.74210 -14.98690 23.67540 -76.52250 5.55594 9.67997 -0.87718 12.67050 0.99115 3.68833 58.29970 -12.56950 81.39060 10.65870 21.97260 87.02810 -5.55712 9.68432 0.87760 7.08022 -18.16650 0.15083 7.12776 22.98010 -41.52410 -14.94030 -14.22850 -0.80535 -0.49740 8.72168 0.89945 -12.92760 1.68331 -3.39933 6.37964 36.18220 -7.46971 4.26184 -26.66470 0.43506 1.42880 1.12021 -0.61655 
